<mxfile host="app.diagrams.net" agent="Mozilla/5.0 (Windows NT 10.0; Win64; x64) AppleWebKit/537.36 (KHTML, like Gecko) Chrome/130.0.0.0 Safari/537.36" version="24.8.3">
  <diagram name="第 1 页" id="l42ReWESJUcluy0J1sR1">
    <mxGraphModel dx="2008" dy="617" grid="1" gridSize="10" guides="1" tooltips="1" connect="1" arrows="1" fold="1" page="1" pageScale="1" pageWidth="827" pageHeight="1169" math="0" shadow="0">
      <root>
        <mxCell id="0" />
        <mxCell id="1" parent="0" />
        <mxCell id="IODXNN1ycQB90-h4VXOX-40" value="" style="group" vertex="1" connectable="0" parent="1">
          <mxGeometry x="-560" y="120" width="1750" height="600" as="geometry" />
        </mxCell>
        <mxCell id="IODXNN1ycQB90-h4VXOX-32" style="edgeStyle=orthogonalEdgeStyle;rounded=0;orthogonalLoop=1;jettySize=auto;html=1;entryX=0;entryY=0.25;entryDx=0;entryDy=0;" edge="1" parent="IODXNN1ycQB90-h4VXOX-40" source="IODXNN1ycQB90-h4VXOX-4" target="IODXNN1ycQB90-h4VXOX-5">
          <mxGeometry relative="1" as="geometry" />
        </mxCell>
        <mxCell id="IODXNN1ycQB90-h4VXOX-4" value="" style="rounded=0;whiteSpace=wrap;html=1;" vertex="1" parent="IODXNN1ycQB90-h4VXOX-40">
          <mxGeometry x="730" width="730" height="390" as="geometry" />
        </mxCell>
        <mxCell id="IODXNN1ycQB90-h4VXOX-1" value="Command Line" style="rounded=1;whiteSpace=wrap;html=1;" vertex="1" parent="IODXNN1ycQB90-h4VXOX-40">
          <mxGeometry x="560" y="150" width="120" height="60" as="geometry" />
        </mxCell>
        <mxCell id="IODXNN1ycQB90-h4VXOX-2" value="WebSocket Client" style="rounded=1;whiteSpace=wrap;html=1;" vertex="1" parent="IODXNN1ycQB90-h4VXOX-40">
          <mxGeometry x="800" y="150" width="120" height="60" as="geometry" />
        </mxCell>
        <mxCell id="IODXNN1ycQB90-h4VXOX-3" value="WebSocket Server" style="rounded=1;whiteSpace=wrap;html=1;" vertex="1" parent="IODXNN1ycQB90-h4VXOX-40">
          <mxGeometry x="1230" y="175" width="200" height="150" as="geometry" />
        </mxCell>
        <mxCell id="IODXNN1ycQB90-h4VXOX-34" style="edgeStyle=orthogonalEdgeStyle;rounded=0;orthogonalLoop=1;jettySize=auto;html=1;exitX=0.5;exitY=1;exitDx=0;exitDy=0;entryX=0.5;entryY=1;entryDx=0;entryDy=0;startArrow=classic;startFill=1;" edge="1" parent="IODXNN1ycQB90-h4VXOX-40" source="IODXNN1ycQB90-h4VXOX-5" target="IODXNN1ycQB90-h4VXOX-18">
          <mxGeometry relative="1" as="geometry">
            <Array as="points">
              <mxPoint x="1690" y="600" />
              <mxPoint x="400" y="600" />
            </Array>
          </mxGeometry>
        </mxCell>
        <mxCell id="IODXNN1ycQB90-h4VXOX-5" value="Database" style="rounded=1;whiteSpace=wrap;html=1;" vertex="1" parent="IODXNN1ycQB90-h4VXOX-40">
          <mxGeometry x="1630" y="180" width="120" height="60" as="geometry" />
        </mxCell>
        <mxCell id="IODXNN1ycQB90-h4VXOX-6" value="Instant Messaging Module" style="text;html=1;align=center;verticalAlign=middle;whiteSpace=wrap;rounded=0;fontSize=20;" vertex="1" parent="IODXNN1ycQB90-h4VXOX-40">
          <mxGeometry x="970" y="20" width="290" height="30" as="geometry" />
        </mxCell>
        <mxCell id="IODXNN1ycQB90-h4VXOX-7" value="WebSocket Client" style="rounded=1;whiteSpace=wrap;html=1;" vertex="1" parent="IODXNN1ycQB90-h4VXOX-40">
          <mxGeometry x="800" y="70" width="120" height="60" as="geometry" />
        </mxCell>
        <mxCell id="IODXNN1ycQB90-h4VXOX-8" value="WebSocket Client" style="rounded=1;whiteSpace=wrap;html=1;" vertex="1" parent="IODXNN1ycQB90-h4VXOX-40">
          <mxGeometry x="800" y="300" width="120" height="60" as="geometry" />
        </mxCell>
        <mxCell id="IODXNN1ycQB90-h4VXOX-13" value="" style="shape=waypoint;sketch=0;fillStyle=solid;size=6;pointerEvents=1;points=[];fillColor=none;resizable=0;rotatable=0;perimeter=centerPerimeter;snapToPoint=1;" vertex="1" parent="IODXNN1ycQB90-h4VXOX-40">
          <mxGeometry x="850" y="220" width="20" height="20" as="geometry" />
        </mxCell>
        <mxCell id="IODXNN1ycQB90-h4VXOX-14" value="" style="shape=waypoint;sketch=0;fillStyle=solid;size=6;pointerEvents=1;points=[];fillColor=none;resizable=0;rotatable=0;perimeter=centerPerimeter;snapToPoint=1;" vertex="1" parent="IODXNN1ycQB90-h4VXOX-40">
          <mxGeometry x="850" y="240" width="20" height="20" as="geometry" />
        </mxCell>
        <mxCell id="IODXNN1ycQB90-h4VXOX-15" value="" style="shape=waypoint;sketch=0;fillStyle=solid;size=6;pointerEvents=1;points=[];fillColor=none;resizable=0;rotatable=0;perimeter=centerPerimeter;snapToPoint=1;" vertex="1" parent="IODXNN1ycQB90-h4VXOX-40">
          <mxGeometry x="850" y="260" width="20" height="20" as="geometry" />
        </mxCell>
        <mxCell id="IODXNN1ycQB90-h4VXOX-17" value="User" style="rounded=1;whiteSpace=wrap;html=1;" vertex="1" parent="IODXNN1ycQB90-h4VXOX-40">
          <mxGeometry y="280" width="120" height="60" as="geometry" />
        </mxCell>
        <mxCell id="IODXNN1ycQB90-h4VXOX-18" value="User Authentication Module" style="rounded=0;whiteSpace=wrap;html=1;" vertex="1" parent="IODXNN1ycQB90-h4VXOX-40">
          <mxGeometry x="300" y="120" width="200" height="120" as="geometry" />
        </mxCell>
        <mxCell id="IODXNN1ycQB90-h4VXOX-19" value="" style="endArrow=classic;html=1;rounded=0;exitX=1;exitY=0.5;exitDx=0;exitDy=0;entryX=0;entryY=0.5;entryDx=0;entryDy=0;" edge="1" parent="IODXNN1ycQB90-h4VXOX-40" source="IODXNN1ycQB90-h4VXOX-17" target="IODXNN1ycQB90-h4VXOX-18">
          <mxGeometry width="50" height="50" relative="1" as="geometry">
            <mxPoint x="-80" y="360" as="sourcePoint" />
            <mxPoint x="230" y="360" as="targetPoint" />
          </mxGeometry>
        </mxCell>
        <mxCell id="IODXNN1ycQB90-h4VXOX-20" value="" style="endArrow=classic;html=1;rounded=0;exitX=1;exitY=0.5;exitDx=0;exitDy=0;entryX=0;entryY=0.5;entryDx=0;entryDy=0;" edge="1" parent="IODXNN1ycQB90-h4VXOX-40" source="IODXNN1ycQB90-h4VXOX-18" target="IODXNN1ycQB90-h4VXOX-1">
          <mxGeometry width="50" height="50" relative="1" as="geometry">
            <mxPoint x="480" y="230" as="sourcePoint" />
            <mxPoint x="530" y="180" as="targetPoint" />
          </mxGeometry>
        </mxCell>
        <mxCell id="IODXNN1ycQB90-h4VXOX-21" value="User" style="rounded=1;whiteSpace=wrap;html=1;" vertex="1" parent="IODXNN1ycQB90-h4VXOX-40">
          <mxGeometry y="130" width="120" height="60" as="geometry" />
        </mxCell>
        <mxCell id="IODXNN1ycQB90-h4VXOX-24" value="User" style="rounded=1;whiteSpace=wrap;html=1;" vertex="1" parent="IODXNN1ycQB90-h4VXOX-40">
          <mxGeometry y="50" width="120" height="60" as="geometry" />
        </mxCell>
        <mxCell id="IODXNN1ycQB90-h4VXOX-25" value="" style="shape=waypoint;sketch=0;fillStyle=solid;size=6;pointerEvents=1;points=[];fillColor=none;resizable=0;rotatable=0;perimeter=centerPerimeter;snapToPoint=1;" vertex="1" parent="IODXNN1ycQB90-h4VXOX-40">
          <mxGeometry x="50" y="200" width="20" height="20" as="geometry" />
        </mxCell>
        <mxCell id="IODXNN1ycQB90-h4VXOX-26" value="" style="shape=waypoint;sketch=0;fillStyle=solid;size=6;pointerEvents=1;points=[];fillColor=none;resizable=0;rotatable=0;perimeter=centerPerimeter;snapToPoint=1;" vertex="1" parent="IODXNN1ycQB90-h4VXOX-40">
          <mxGeometry x="50" y="240" width="20" height="20" as="geometry" />
        </mxCell>
        <mxCell id="IODXNN1ycQB90-h4VXOX-27" value="" style="shape=waypoint;sketch=0;fillStyle=solid;size=6;pointerEvents=1;points=[];fillColor=none;resizable=0;rotatable=0;perimeter=centerPerimeter;snapToPoint=1;" vertex="1" parent="IODXNN1ycQB90-h4VXOX-40">
          <mxGeometry x="50" y="220" width="20" height="20" as="geometry" />
        </mxCell>
        <mxCell id="IODXNN1ycQB90-h4VXOX-28" value="" style="endArrow=classic;html=1;rounded=0;exitX=1;exitY=0.5;exitDx=0;exitDy=0;entryX=0;entryY=0.5;entryDx=0;entryDy=0;" edge="1" parent="IODXNN1ycQB90-h4VXOX-40" source="IODXNN1ycQB90-h4VXOX-21" target="IODXNN1ycQB90-h4VXOX-18">
          <mxGeometry width="50" height="50" relative="1" as="geometry">
            <mxPoint x="130" y="320" as="sourcePoint" />
            <mxPoint x="310" y="190" as="targetPoint" />
          </mxGeometry>
        </mxCell>
        <mxCell id="IODXNN1ycQB90-h4VXOX-29" value="" style="endArrow=classic;html=1;rounded=0;exitX=1;exitY=0.5;exitDx=0;exitDy=0;entryX=-0.034;entryY=0.492;entryDx=0;entryDy=0;entryPerimeter=0;" edge="1" parent="IODXNN1ycQB90-h4VXOX-40" source="IODXNN1ycQB90-h4VXOX-24" target="IODXNN1ycQB90-h4VXOX-18">
          <mxGeometry width="50" height="50" relative="1" as="geometry">
            <mxPoint x="130" y="170" as="sourcePoint" />
            <mxPoint x="310" y="190" as="targetPoint" />
          </mxGeometry>
        </mxCell>
        <mxCell id="IODXNN1ycQB90-h4VXOX-30" value="" style="endArrow=classic;html=1;rounded=0;exitX=0.995;exitY=0.626;exitDx=0;exitDy=0;exitPerimeter=0;entryX=-0.002;entryY=0.481;entryDx=0;entryDy=0;entryPerimeter=0;" edge="1" parent="IODXNN1ycQB90-h4VXOX-40" source="IODXNN1ycQB90-h4VXOX-1" target="IODXNN1ycQB90-h4VXOX-4">
          <mxGeometry width="50" height="50" relative="1" as="geometry">
            <mxPoint x="320" y="230" as="sourcePoint" />
            <mxPoint x="720" y="186" as="targetPoint" />
          </mxGeometry>
        </mxCell>
        <mxCell id="IODXNN1ycQB90-h4VXOX-36" style="edgeStyle=orthogonalEdgeStyle;rounded=0;orthogonalLoop=1;jettySize=auto;html=1;entryX=0.999;entryY=0.537;entryDx=0;entryDy=0;entryPerimeter=0;" edge="1" parent="IODXNN1ycQB90-h4VXOX-40" source="IODXNN1ycQB90-h4VXOX-5" target="IODXNN1ycQB90-h4VXOX-4">
          <mxGeometry relative="1" as="geometry" />
        </mxCell>
        <mxCell id="IODXNN1ycQB90-h4VXOX-38" value="" style="endArrow=classic;startArrow=classic;html=1;rounded=0;exitX=0;exitY=0.5;exitDx=0;exitDy=0;" edge="1" parent="IODXNN1ycQB90-h4VXOX-40" source="IODXNN1ycQB90-h4VXOX-3">
          <mxGeometry width="50" height="50" relative="1" as="geometry">
            <mxPoint x="1080" y="290" as="sourcePoint" />
            <mxPoint x="920" y="250" as="targetPoint" />
          </mxGeometry>
        </mxCell>
        <mxCell id="IODXNN1ycQB90-h4VXOX-39" value="Asynchronous Message Processing" style="text;html=1;align=center;verticalAlign=middle;whiteSpace=wrap;rounded=0;" vertex="1" parent="IODXNN1ycQB90-h4VXOX-40">
          <mxGeometry x="974" y="210" width="210" height="30" as="geometry" />
        </mxCell>
      </root>
    </mxGraphModel>
  </diagram>
</mxfile>
